<?xml version="1.0" encoding="iso-8859-1"?>
<!-- Generator: Adobe Illustrator 19.0.0, SVG Export Plug-In . SVG Version: 6.00 Build 0)  -->
<svg version="1.1" id="Capa_1" xmlns="http://www.w3.org/2000/svg" xmlns:xlink="http://www.w3.org/1999/xlink" x="0px" y="0px"
	 viewBox="0 0 512 512" style="enable-background:new 0 0 512 512;" xml:space="preserve">
<g>
	<g>
		<path d="M446,51H171v90h200v200h90V66C461,57.72,454.28,51,446,51z"/>
	</g>
</g>
<g>
	<g>
		<path d="M497,371H141V15c0-8.284-6.716-15-15-15H66c-8.284,0-15,6.716-15,15v36H15C6.716,51,0,57.716,0,66v60
			c0,8.284,6.716,15,15,15h36v305c0,8.284,6.716,15,15,15h305v36c0,8.284,6.716,15,15,15h60c8.284,0,15-6.716,15-15v-36h36
			c8.284,0,15-6.716,15-15v-60C512,377.716,505.284,371,497,371z"/>
	</g>
</g>
<g>
</g>
<g>
</g>
<g>
</g>
<g>
</g>
<g>
</g>
<g>
</g>
<g>
</g>
<g>
</g>
<g>
</g>
<g>
</g>
<g>
</g>
<g>
</g>
<g>
</g>
<g>
</g>
<g>
</g>
</svg>
