<?xml version="1.0" encoding="iso-8859-1"?>
<!-- Generator: Adobe Illustrator 19.0.0, SVG Export Plug-In . SVG Version: 6.00 Build 0)  -->
<svg version="1.1" id="Capa_1" xmlns="http://www.w3.org/2000/svg" xmlns:xlink="http://www.w3.org/1999/xlink" x="0px" y="0px"
	 viewBox="0 0 512 512" style="enable-background:new 0 0 512 512;" xml:space="preserve">
<g>
	<g>
		<path d="M407,182h-75V15c0-8.29-6.71-15-15-15H195c-8.29,0-15,6.71-15,15v167h-75c-12.68,0-19.69,14.84-11.52,24.61l152,180
			c5.98,7.18,17.05,7.18,23.03,0l150-180C426.68,196.84,419.68,182,407,182z"/>
	</g>
</g>
<g>
	<g>
		<path d="M497,302h-60c-8.29,0-15,6.71-15,15v105H90V317c0-8.29-6.71-15-15-15H15c-8.29,0-15,6.71-15,15v150
			c0,24.82,20.18,45,45,45h422c24.81,0,45-20.18,45-45V317C512,308.71,505.29,302,497,302z"/>
	</g>
</g>
<g>
</g>
<g>
</g>
<g>
</g>
<g>
</g>
<g>
</g>
<g>
</g>
<g>
</g>
<g>
</g>
<g>
</g>
<g>
</g>
<g>
</g>
<g>
</g>
<g>
</g>
<g>
</g>
<g>
</g>
</svg>
