<?xml version="1.0" encoding="iso-8859-1"?>
<!-- Generator: Adobe Illustrator 16.0.0, SVG Export Plug-In . SVG Version: 6.00 Build 0)  -->
<!DOCTYPE svg PUBLIC "-//W3C//DTD SVG 1.1//EN" "http://www.w3.org/Graphics/SVG/1.1/DTD/svg11.dtd">
<svg version="1.1" id="Capa_1" xmlns="http://www.w3.org/2000/svg" xmlns:xlink="http://www.w3.org/1999/xlink" x="0px" y="0px"
	 width="373.008px" height="373.008px" viewBox="0 0 373.008 373.008" style="enable-background:new 0 0 373.008 373.008;"
	 xml:space="preserve">
<g>
	<g id="Layer_8_30_">
		<path d="M353.703,245.49H19.304c-6.892,0-13.27-3.673-16.714-9.653c-3.453-5.965-3.453-13.336,0-19.305L169.787,16.161
			c3.444-5.973,9.821-9.655,16.713-9.655c6.893,0,13.274,3.682,16.717,9.655l167.21,200.372c1.718,2.987,2.581,6.314,2.581,9.657
			c0,3.333-0.863,6.659-2.581,9.659C366.972,241.817,360.594,245.49,353.703,245.49z M372.813,358.782v-63.705
			c0-4.263-3.46-7.722-7.729-7.722H7.917c-4.264,0-7.721,3.459-7.721,7.722v63.705c0,4.264,3.457,7.72,7.721,7.72h357.167
			C369.353,366.508,372.813,363.046,372.813,358.782z"/>
	</g>
</g>
<g>
</g>
<g>
</g>
<g>
</g>
<g>
</g>
<g>
</g>
<g>
</g>
<g>
</g>
<g>
</g>
<g>
</g>
<g>
</g>
<g>
</g>
<g>
</g>
<g>
</g>
<g>
</g>
<g>
</g>
</svg>
