<?xml version="1.0" encoding="iso-8859-1"?>
<!-- Generator: Adobe Illustrator 19.0.0, SVG Export Plug-In . SVG Version: 6.00 Build 0)  -->
<svg version="1.1" id="Capa_1" xmlns="http://www.w3.org/2000/svg" xmlns:xlink="http://www.w3.org/1999/xlink" x="0px" y="0px"
	 viewBox="0 0 512 512" style="enable-background:new 0 0 512 512;" xml:space="preserve">
<g>
	<g>
		<path d="M484.078,27.923C466.07,9.917,442.131,0.001,416.666,0.002L95.333,0C69.868,0.001,45.928,9.918,27.922,27.924
			S0,69.87,0.002,95.333L0,416.667C0.002,469.233,42.769,512,95.334,512h321.332C469.232,512,512,469.233,512,416.666V95.336
			C512,69.87,502.084,45.929,484.078,27.923z M165.864,180.323l79.527-79.53c2.813-2.813,6.629-4.394,10.606-4.394
			c3.979,0,7.793,1.58,10.606,4.394l79.527,79.525c5.859,5.857,5.859,15.355,0.002,21.213c-5.859,5.857-15.355,5.859-21.215,0
			l-53.922-53.922l0.002,160.018c0,8.284-6.715,15-15,15c-8.285,0-15-6.716-15-15l-0.003-160.012l-53.918,53.921
			c-2.929,2.929-6.768,4.394-10.606,4.394c-3.84,0-7.678-1.464-10.607-4.394C160.006,195.679,160.006,186.182,165.864,180.323z
			 M400.601,415.6h-289.2c-8.283,0-15-6.716-15-15s6.717-15,15-15h289.201c8.283,0,15,6.716,15,15
			C415.601,408.884,408.885,415.6,400.601,415.6z"/>
	</g>
</g>
<g>
</g>
<g>
</g>
<g>
</g>
<g>
</g>
<g>
</g>
<g>
</g>
<g>
</g>
<g>
</g>
<g>
</g>
<g>
</g>
<g>
</g>
<g>
</g>
<g>
</g>
<g>
</g>
<g>
</g>
</svg>
